<?xml version="1.0" encoding="UTF-8" standalone="no"?>
<!-- pqverse hex logo template: tidypq -->

<!-- Open in Inkscape · replace the dashed placeholder with your illustration -->

<!-- Palette: #faefd1 cream · #003f5f dark blue · #c8a734 gold · #2e7891 teal (accent) -->

<svg
   width="43.899933mm"
   height="50.800056mm"
   viewBox="0 0 43.899933 50.800056"
   version="1.1"
   id="svg3"
   sodipodi:docname="logo.svg"
   xml:space="preserve"
   inkscape:version="1.4.3 (1:1.4.3+202512261035+0d15f75042)"
   xmlns:inkscape="http://www.inkscape.org/namespaces/inkscape"
   xmlns:sodipodi="http://sodipodi.sourceforge.net/DTD/sodipodi-0.dtd"
   xmlns:xlink="http://www.w3.org/1999/xlink"
   xmlns="http://www.w3.org/2000/svg"
   xmlns:svg="http://www.w3.org/2000/svg"><sodipodi:namedview
     inkscape:document-units="mm"
     inkscape:export-xdpi="300"
     inkscape:export-ydpi="300"
     id="namedview1"
     pagecolor="#ffffff"
     bordercolor="#000000"
     borderopacity="0.25"
     inkscape:showpageshadow="2"
     inkscape:pageopacity="0.0"
     inkscape:pagecheckerboard="0"
     inkscape:deskcolor="#d1d1d1"
     inkscape:zoom="0.56315042"
     inkscape:cx="-473.23058"
     inkscape:cy="237.05922"
     inkscape:window-width="1920"
     inkscape:window-height="1052"
     inkscape:window-x="0"
     inkscape:window-y="0"
     inkscape:window-maximized="1"
     inkscape:current-layer="g42876" /><defs
     id="defs2"><rect
       x="-94.55733"
       y="183.34356"
       width="181.56783"
       height="67.477532"
       id="rect20" /><!-- Clip path: limits illustration to inner hexagon --><clipPath
       id="innerHexClip"><polygon
         points="22.092,1.31 42.954,13.355 42.954,37.445 22.092,49.490 1.23,37.445 1.23,13.355"
         id="polygon1" /></clipPath><!-- Text arc: convex-upward quadratic bezier for package name --><!-- Midpoint at approx. (22.092, 7.5) · adjust control point y to change curvature --><path
       id="textArc"
       d="M 4,15 Q 22.092,6 40,15"
       fill="none" /></defs><!-- ── 1. OUTER HEX BORDER ──────────────────────────────────────────── --><!-- ── 2. INNER HEX BACKGROUND (cream parchment) ────────────────────── --><!-- ── 3. TOP ACCENT BAND (teal · edit colour/opacity to taste) ─────── --><!-- ── 4. BOTTOM ACCENT BAND (echo of top) ──────────────────────────── --><!-- ── 5. GOLD INNER BORDER LINE ────────────────────────────────────── --><!-- ── 6. PACKAGE NAME ───────────────────────────────────────────────── --><!-- Font: Linux Libertine O (apt: linux-libertine / fonts-linuxlibertine) --><!-- Adjust font-size (mm) and the textArc control point to fit the name --><!-- ── 7. ILLUSTRATION PLACEHOLDER ─────────────────────────────────── --><!-- Concept: tidyverse-style verbs acting on a phyloseq object          --><!-- e.g. filter_taxa | select_samdata | mutate_occurrences pipeline     --><!-- Delete this group and draw your illustration here                   --><g
     id="g3"
     transform="translate(-7.0023895,-10.054167)"><g
       id="g42876"
       transform="matrix(1.260031,0,0,1.260213,-51.631889,-15.762099)"
       inkscape:export-filename="g42876.png"
       inkscape:export-xdpi="300"
       inkscape:export-ydpi="300"><path
         style="color:#000000;font-variation-settings:normal;opacity:1;fill:#faefd1;fill-opacity:1;stroke:#000000;stroke-width:0.529167;stroke-linecap:butt;stroke-linejoin:miter;stroke-miterlimit:4.1215;stroke-dasharray:none;stroke-dashoffset:0;stroke-opacity:1;marker:none;marker-start:none;marker-mid:none;marker-end:none;paint-order:fill markers stroke;stop-color:#000000;stop-opacity:1"
         d="M 80.997586,30.716396 V 50.565568 L 63.954177,60.490154 46.910767,50.565568 V 30.716396 l 17.04341,-9.924586 z"
         id="path23099"
         sodipodi:nodetypes="ccccccc" /><text
         xml:space="preserve"
         id="text25506"
         style="font-weight:bold;font-size:5.14588px;line-height:1.1;font-family:'Linux Libertine O';-inkscape-font-specification:'Linux Libertine O Bold';font-variation-settings:normal;text-decoration:none;text-decoration-line:none;text-decoration-color:#000000;white-space:pre;display:inline;opacity:1;fill:#003f5f;fill-opacity:1;stroke:none;stroke-width:6;stroke-linecap:butt;stroke-linejoin:miter;stroke-miterlimit:4.1215;stroke-dasharray:none;stroke-dashoffset:0;stroke-opacity:1;marker:none;marker-start:none;marker-mid:none;marker-end:none;paint-order:fill markers stroke;stop-color:#000000;stop-opacity:1"
         transform="translate(-6.0030797,-0.83980512)"><textPath
           xlink:href="#path38761"
           id="textPath38763" /></text><path
         style="font-variation-settings:normal;opacity:1;fill:#c8a734;fill-opacity:1;stroke:#c8a734;stroke-width:0.524163;stroke-linecap:butt;stroke-linejoin:miter;stroke-miterlimit:4.1215;stroke-dasharray:none;stroke-dashoffset:0;stroke-opacity:1;marker:none;marker-start:none;marker-mid:none;marker-end:none;paint-order:fill markers stroke;stop-color:#000000;stop-opacity:1"
         d="m 55.662264,55.097819 c 0,0 -8.117287,-4.390611 -8.376756,-4.840024 -0.12004,-0.207916 13.908654,9.655492 16.621179,5.166989 2.927217,4.234081 16.885828,-5.158958 16.885828,-5.158958 l -8.132639,4.70848 c -4.535877,2.626097 -8.595246,5.069095 -8.664354,5.10666 -0.08862,0.04817 -2.425503,-1.569684 -8.333273,-4.983147 z"
         id="path24175"
         sodipodi:nodetypes="csccsscc" /><path
         style="font-variation-settings:normal;opacity:1;fill:#2e7891;fill-opacity:1;stroke:#2e7891;stroke-width:0.524163;stroke-linecap:butt;stroke-linejoin:miter;stroke-miterlimit:4.1215;stroke-dasharray:none;stroke-dashoffset:0;stroke-opacity:1;marker:none;marker-start:none;marker-mid:none;marker-end:none;paint-order:fill markers stroke;stop-color:#000000;stop-opacity:1"
         d="m 55.635312,26.178754 c 0,0 -8.117287,4.390611 -8.376756,4.840024 -0.12004,0.207916 13.908654,-9.655492 16.621179,-5.166989 2.927217,-4.234081 16.885828,5.158958 16.885828,5.158958 l -8.132639,-4.70848 c -4.535877,-2.626097 -8.595246,-5.069095 -8.664354,-5.10666 -0.08862,-0.04817 -2.425503,1.569684 -8.333273,4.983147 z"
         id="path2493"
         sodipodi:nodetypes="csccsscc" /><path
         style="color:#000000;font-variation-settings:normal;opacity:1;fill:none;fill-opacity:1;stroke:#000000;stroke-width:0.529167;stroke-linecap:butt;stroke-linejoin:miter;stroke-miterlimit:4.1215;stroke-dasharray:none;stroke-dashoffset:0;stroke-opacity:1;marker:none;marker-start:none;marker-mid:none;marker-end:none;paint-order:fill markers stroke;stop-color:#000000;stop-opacity:1"
         d="M 80.997586,30.716396 V 50.565568 L 63.954177,60.490154 46.910767,50.565568 V 30.716396 l 17.04341,-9.924586 z"
         id="path26524" /><path
         style="font-variation-settings:normal;opacity:0.564379;fill:none;fill-opacity:1;stroke:none;stroke-width:2.06915;stroke-linecap:butt;stroke-linejoin:miter;stroke-miterlimit:4.1215;stroke-dasharray:none;stroke-dashoffset:0;stroke-opacity:1;marker:none;marker-start:none;marker-mid:none;marker-end:none;paint-order:fill markers stroke;stop-color:#000000;stop-opacity:1"
         d="m 49.588551,34.394787 c 9.868953,-2.794231 17.284185,-3.953985 28.73125,0"
         id="path38761"
         sodipodi:nodetypes="cc" /><path
         style="font-variation-settings:normal;opacity:1;vector-effect:none;fill:#db2a04;fill-opacity:1;stroke:none;stroke-width:0.386673;stroke-linecap:butt;stroke-linejoin:miter;stroke-miterlimit:4.1215;stroke-dasharray:none;stroke-dashoffset:0;stroke-opacity:1;-inkscape-stroke:none;marker:none;marker-start:none;marker-mid:none;marker-end:none;paint-order:fill markers stroke;stop-color:#000000;stop-opacity:1"
         d="m 55.394836,39.026354 c -0.287565,-0.502585 -0.56201,-1.012623 -0.88624,-1.540151 -0.314207,-0.447428 -0.535114,-0.948386 0.158652,-1.024319 0.457783,-0.302615 0.988566,-0.509946 1.475926,-0.760659 0.601867,-0.200462 1.150534,-0.491733 1.73466,-0.708981 0.612465,-0.179643 1.201461,-0.443465 1.805759,-0.618164 0.717676,-0.315713 1.494489,-0.39129 2.2486,-0.591643 0.853138,-0.232256 1.757615,-0.270566 2.636325,-0.123347 -0.03921,0.553785 -1.230283,0.721911 -1.638097,1.175981 -0.695579,0.369713 -1.363692,0.810393 -2.032033,1.169056 -0.854818,0.497625 -1.716516,1.024371 -2.57447,1.499394 -0.630161,0.392911 -1.323827,0.77987 -1.935682,1.147712 -0.330743,0.05659 -0.672876,0.615143 -0.9934,0.375121 z"
         id="path3" /><path
         style="font-variation-settings:normal;opacity:1;vector-effect:none;fill:#80210b;fill-opacity:1;stroke:none;stroke-width:0.386673;stroke-linecap:butt;stroke-linejoin:miter;stroke-miterlimit:4.1215;stroke-dasharray:none;stroke-dashoffset:0;stroke-opacity:1;-inkscape-stroke:none;marker:none;marker-start:none;marker-mid:none;marker-end:none;paint-order:fill markers stroke;stop-color:#000000;stop-opacity:1"
         d="m 55.775132,39.707523 c -0.469936,-0.521412 0.734412,-0.65184 1.040418,-0.9953 0.838044,-0.4733 1.645115,-0.96844 2.49123,-1.441103 0.58685,-0.369415 1.218678,-0.695251 1.803593,-1.07959 0.630088,-0.346459 1.26604,-0.713725 1.872853,-1.092168 0.618889,-0.344413 1.239464,-0.70474 1.853983,-1.091982 0.490064,0.518574 -0.407279,0.641549 -0.742228,0.921453 -1.054483,0.617818 -2.087502,1.219397 -3.136913,1.83533 -0.717885,0.415852 -1.402743,0.832323 -2.124113,1.236894 -0.498197,0.310595 -1.04156,0.597952 -1.531535,0.907634 -0.477622,0.289307 -1.000024,0.536988 -1.453858,0.858983 l -0.07343,-0.06005 z"
         id="path4" /><path
         style="font-variation-settings:normal;opacity:1;vector-effect:none;fill:#c93312;fill-opacity:1;stroke:none;stroke-width:0.386673;stroke-linecap:butt;stroke-linejoin:miter;stroke-miterlimit:4.1215;stroke-dasharray:none;stroke-dashoffset:0;stroke-opacity:1;-inkscape-stroke:none;marker:none;marker-start:none;marker-mid:none;marker-end:none;paint-order:fill markers stroke;stop-color:#000000;stop-opacity:1"
         d="m 55.992171,40.087119 c 0.314393,-0.467455 1.017513,-0.643231 1.471195,-0.984371 0.563079,-0.342481 1.171998,-0.645983 1.707143,-1.00553 0.508579,-0.253274 0.99053,-0.610048 1.4864,-0.841629 0.507317,-0.340939 1.052005,-0.614315 1.593621,-0.941739 0.511203,-0.322195 1.051712,-0.576125 1.544103,-0.924216 0.467305,-0.09449 1.079309,-0.878908 1.431987,-0.640192 -0.18174,0.354061 -0.980307,0.582761 -1.389272,0.916981 -0.499632,0.286447 -1.044445,0.586469 -1.540448,0.901906 -0.583949,0.306516 -1.172871,0.694411 -1.762862,1.01546 -0.415509,0.243272 -0.849407,0.500871 -1.266817,0.743524 -0.5957,0.351667 -1.166903,0.695247 -1.76928,1.03255 -0.468855,0.276125 -0.929706,0.580831 -1.415243,0.814425 -0.07475,0.12527 -0.09155,-0.13792 -0.09053,-0.08717 z"
         id="path5" /><path
         style="font-variation-settings:normal;opacity:1;vector-effect:none;fill:#ef6c4f;fill-opacity:1;stroke:none;stroke-width:0.386673;stroke-linecap:butt;stroke-linejoin:miter;stroke-miterlimit:4.1215;stroke-dasharray:none;stroke-dashoffset:0;stroke-opacity:1;-inkscape-stroke:none;marker:none;marker-start:none;marker-mid:none;marker-end:none;paint-order:fill markers stroke;stop-color:#000000;stop-opacity:1"
         d="m 58.026661,43.648992 c -0.242463,-0.361558 -0.495115,-0.791678 -0.694411,-1.213905 -0.258515,-0.359568 -0.434928,-0.777349 -0.659454,-1.14596 -0.301729,-0.475853 -0.762765,-0.975587 0.04164,-1.145563 0.440019,-0.294651 0.933864,-0.540025 1.399845,-0.825667 0.489909,-0.275741 0.965126,-0.594835 1.472053,-0.838001 0.446513,-0.320011 0.922229,-0.570352 1.413756,-0.826738 0.343215,-0.24789 0.744249,-0.468248 1.117215,-0.664061 0.404368,-0.303388 0.894468,-0.470832 1.259087,-0.784916 0.491754,-0.209447 0.89351,-0.51167 1.370382,-0.760614 0.367316,-0.261702 0.790471,-0.531371 0.939359,0.06257 0.432555,0.560738 -0.06922,1.141276 -0.277267,1.62774 -0.306151,0.340175 -0.540306,0.731098 -0.861494,1.071601 -0.239246,0.343062 -0.53635,0.546791 -0.76765,0.860946 -0.253994,0.207883 -0.461455,0.420357 -0.69075,0.668768 -0.328404,0.320984 -0.728165,0.652475 -1.120889,0.985959 -0.249659,0.266571 -0.589275,0.485543 -0.892169,0.75139 -0.328839,0.272341 -0.666622,0.55353 -1.012065,0.771096 -0.283442,0.251698 -0.620455,0.499767 -0.94541,0.678556 -0.337521,0.280826 -0.703044,0.501278 -1.060145,0.783405 l -0.03173,-0.05674 z"
         id="path6" /><path
         style="font-variation-settings:normal;opacity:1;vector-effect:none;fill:#905c50;fill-opacity:1;stroke:none;stroke-width:0.386673;stroke-linecap:butt;stroke-linejoin:miter;stroke-miterlimit:4.1215;stroke-dasharray:none;stroke-dashoffset:0;stroke-opacity:1;-inkscape-stroke:none;marker:none;marker-start:none;marker-mid:none;marker-end:none;paint-order:fill markers stroke;stop-color:#000000;stop-opacity:1"
         d="m 66.084652,35.586034 c -0.263747,-0.377753 -0.450604,-0.771036 -0.6791,-1.160239 -0.107064,-0.243742 -0.65971,-0.80148 -0.100089,-0.825345 0.399074,0.0671 1.025578,-0.192495 1.155167,0.233763 0.34089,0.413593 0.402259,0.858846 0.0409,1.27204 -0.185964,0.109851 -0.243042,0.457444 -0.416881,0.479781 z"
         id="path9" /><path
         style="font-variation-settings:normal;opacity:1;vector-effect:none;fill:#c93312;fill-opacity:1;stroke:none;stroke-width:0.386673;stroke-linecap:butt;stroke-linejoin:miter;stroke-miterlimit:4.1215;stroke-dasharray:none;stroke-dashoffset:0;stroke-opacity:1;-inkscape-stroke:none;marker:none;marker-start:none;marker-mid:none;marker-end:none;paint-order:fill markers stroke;stop-color:#000000;stop-opacity:1"
         d="m 66.910922,34.168218 c -0.551699,-0.516688 -0.01816,-0.852713 0.442936,-1.007715 0.371765,-0.270399 0.728421,-0.484436 1.162722,-0.671413 0.307994,-0.276544 0.733666,-0.442174 1.084262,-0.669276 0.397833,-0.216493 0.778116,-0.472689 1.207105,-0.68193 0.287328,-0.247832 0.735263,-0.389885 1.037389,-0.653071 0.419296,-0.197833 0.811619,-0.452025 1.199058,-0.686379 0.408018,-0.416437 0.755576,-0.190239 1.215442,0.118953 -0.107967,0.153515 -0.649069,0.482821 -0.954358,0.594071 -0.361773,0.281787 -0.722153,0.44732 -1.145275,0.673948 -0.354822,0.281403 -0.875651,0.493836 -1.258121,0.76062 -0.389349,0.260464 -0.80853,0.410822 -1.161487,0.6996 -0.415376,0.186683 -0.74301,0.421536 -1.143008,0.64585 -0.394957,0.222104 -0.719437,0.446413 -1.108234,0.617495 -0.101112,0.12914 -0.393263,0.332372 -0.578431,0.259247 z"
         id="path11" /><path
         style="fill:#dbc373;stroke:none;stroke-width:0.0686796;stroke-linecap:round;stroke-miterlimit:4.1215;paint-order:fill markers stroke;fill-opacity:1"
         d="m 55.703952,49.830474 c -0.281386,-0.300507 -0.402786,-0.748324 -0.66631,-1.11878 -0.276226,-0.50005 -0.532528,-0.9494 -0.81775,-1.447103 -0.2015,-0.44854 -0.530986,-0.842721 -0.710689,-1.314323 -0.338239,-0.501513 -0.607727,-1.006639 -0.867301,-1.521869 -0.290008,-0.408961 1.314737,-0.94136 1.335689,-0.567279 0.967102,1.688253 1.939422,3.376137 2.87738,5.076585 0.275236,0.275471 -0.955326,0.83483 -1.151019,0.892769 z"
         id="path12" /><path
         style="fill:#9b8328;stroke:none;stroke-width:0.0686796;stroke-linecap:round;stroke-miterlimit:4.1215;paint-order:fill markers stroke;fill-opacity:1"
         d="m 52.379857,43.97627 c -0.0509,-0.02396 -0.06815,-0.05799 -0.06815,-0.134432 0,-0.07783 -0.01632,-0.1089 -0.06815,-0.129727 -0.04114,-0.01653 -0.04967,-0.02815 -0.02155,-0.02931 0.02563,-0.0011 0.09697,-0.02759 0.158528,-0.05898 0.06156,-0.03137 0.176887,-0.0668 0.256279,-0.0787 0.0794,-0.01189 0.170239,-0.0355 0.201881,-0.05243 0.03164,-0.01693 0.167937,-0.05467 0.30288,-0.08388 0.134941,-0.0292 0.28999,-0.07163 0.344553,-0.09429 0.135936,-0.05646 0.200976,-0.01176 0.212808,0.14621 0.009,0.119541 0.0068,0.122374 -0.106003,0.143003 -0.06333,0.01151 -0.142601,0.03869 -0.176162,0.06026 -0.03356,0.02157 -0.108521,0.04948 -0.166583,0.06202 -0.05807,0.01252 -0.156131,0.0484 -0.217937,0.07968 -0.0618,0.03127 -0.137292,0.05688 -0.167751,0.05688 -0.03046,0 -0.105927,0.02577 -0.167718,0.05726 -0.155612,0.07932 -0.23738,0.09388 -0.316926,0.05642 z"
         id="path13" /><path
         style="fill:#c8a734;stroke:none;stroke-width:0.0686796;stroke-linecap:round;stroke-miterlimit:4.1215;paint-order:fill markers stroke;fill-opacity:1"
         d="m 52.076978,43.450153 c -0.0571,-0.05276 -0.03843,-0.150723 -0.105868,-0.202629 -0.06863,-0.05336 -0.07016,-0.144803 -0.120485,-0.207315 -0.113459,-0.04652 -0.05366,-0.186934 -0.128306,-0.25757 -0.08824,-0.04729 -0.07886,-0.158109 -0.120797,-0.235292 -0.05992,-0.0352 -0.16785,-0.121832 -0.07093,-0.186442 0.15826,-0.03947 0.323828,-0.03772 0.486114,-0.04252 0.09018,-0.0042 0.204162,0.01209 0.265337,-0.07044 0.06967,-0.06191 0.172512,-0.04271 0.258315,-0.05017 0.154086,0.0019 0.309816,-0.0092 0.462677,0.01357 0.04873,0.03389 0.06731,0.107239 0.130934,0.137512 0.03094,0.09156 0.0486,0.188618 0.129146,0.255177 0.02257,0.0764 0.05024,0.153374 0.108722,0.212058 0.06095,0.06331 0.0552,0.162212 0.128516,0.216242 0.06378,0.03422 0.126676,0.153473 0.0019,0.124153 -0.17693,0.01548 -0.354096,0.04783 -0.519401,0.114052 -0.158963,0.05254 -0.328957,0.06352 -0.485293,0.124367 -0.09846,0.0529 -0.216038,0.05309 -0.32515,0.06267 -0.03171,1.92e-4 -0.0649,0.0025 -0.09545,-0.0074 z"
         id="path14" /><path
         style="fill:#64541a;stroke:none;stroke-width:0.0686796;stroke-linecap:round;stroke-miterlimit:4.1215;paint-order:fill markers stroke;fill-opacity:1"
         d="m 59.126481,52.408415 c -1.948573,-3.436283 -3.926658,-6.852685 -5.860485,-10.301182 0.524654,-0.606463 1.131943,-0.374773 1.363586,0.385844 0.297139,0.720279 0.866448,1.351081 1.148092,2.108225 0.392517,0.498562 0.635129,1.080917 0.940695,1.643772 0.474162,0.572835 0.678271,1.237046 1.075497,1.84492 0.265444,0.455863 0.544047,0.911468 0.81777,1.390574 0.468447,0.777869 0.872304,1.583866 1.36294,2.359277 -0.191724,0.196331 -0.572612,0.686311 -0.848095,0.56857 z"
         id="path15" /><path
         style="fill:#9b8328;stroke:none;stroke-width:0.0686796;stroke-linecap:round;stroke-miterlimit:4.1215;paint-order:fill markers stroke;fill-opacity:1"
         d="m 57.90366,53.827885 c -0.280525,-0.534518 -0.611031,-1.042435 -0.89978,-1.608359 -0.313394,-0.537712 -0.582335,-1.024075 -0.8759,-1.592783 -0.664615,-0.575323 0.289965,-0.916932 0.742283,-1.242154 0.510528,-0.06384 0.72662,1.167655 1.138288,1.603361 0.23752,0.594858 0.953244,1.250726 0.87592,1.822633 -0.287871,0.188656 -0.745208,1.286753 -0.980811,1.017302 z"
         id="path16" /><path
         style="fill:#c8a734;stroke:none;stroke-width:0.194254;stroke-linecap:round;stroke-miterlimit:4.1215;paint-order:fill markers stroke;stroke-opacity:1;fill-opacity:1"
         d="m 57.374435,46.745929 c -0.38026,-1.023912 1.470085,-1.22864 2.089827,-1.834517 0.907132,-0.490889 1.676533,-1.016529 2.569091,-1.498982 1.007712,-0.597065 1.96192,-1.201307 3.018846,-1.745676 0.543786,-0.491119 1.384429,-0.747039 1.977071,-1.248601 1.137197,-0.601909 2.268962,-1.29975 3.393328,-1.958835 2.512684,-1.431946 4.988153,-2.933539 7.494778,-4.37563 0.601668,-0.296572 2.211258,-1.742585 1.938984,-0.218814 -0.925781,0.537636 -1.889396,1.167579 -2.882251,1.679029 -0.729823,0.494837 -1.545648,0.916416 -2.304264,1.372717 -2.12333,1.223479 -4.212555,2.51375 -6.367828,3.679163 -0.678947,0.560669 -1.689635,0.901835 -2.366624,1.494404 -0.890491,0.393574 -1.658934,0.940548 -2.471032,1.396463 -1.040365,0.572079 -1.960552,1.232185 -3.039941,1.728517 -0.683988,0.581601 -1.573819,0.943559 -2.341037,1.427664 -0.303588,0.07448 -0.513343,0.613806 -0.708948,0.103098 z"
         id="path17" /><path
         style="fill:#40a1c2;stroke:none;stroke-width:0.0971274;stroke-linecap:round;stroke-miterlimit:4.1215;paint-order:fill markers stroke;fill-opacity:1"
         d="M 68.203557,55.84891 C 67.88746,55.48343 67.552887,55.019588 67.186184,54.70362 66.820676,54.305462 66.486983,53.857023 66.083708,53.449554 65.726089,53.150096 65.462163,52.674607 65.130056,52.39097 64.851088,52.140168 64.65444,51.699534 64.334941,51.496706 64.053231,51.08628 63.710173,50.831351 63.39169,50.430654 63.034378,50.021483 62.690194,49.65515 62.334911,49.235575 c -0.273825,-0.263398 -0.474303,-0.555977 0.111863,-0.570543 0.715217,-0.185007 1.433123,-0.465501 2.181003,-0.637982 0.452721,-0.05663 1.249266,-0.691055 1.551458,-0.255482 0.236088,0.447457 0.518163,0.884337 0.74976,1.301826 0.21364,0.46126 0.527921,0.848677 0.704269,1.305556 0.251194,0.354123 0.455948,0.745011 0.666511,1.117248 0.232585,0.336814 0.388669,0.819157 0.668421,1.116302 0.140222,0.417866 0.434159,0.789348 0.638249,1.170398 0.209079,0.332543 0.448496,0.707676 0.04854,0.966213 -0.455991,0.254029 -0.769411,0.649338 -1.14202,0.952612 -0.07375,0.08815 -0.183949,0.184404 -0.309403,0.147187 z"
         id="path18" /><path
         style="fill:#22586a;stroke:none;stroke-width:0.0971274;stroke-linecap:round;stroke-miterlimit:4.1215;paint-order:fill markers stroke;fill-opacity:1"
         d="M 70.256894,54.318753 C 70.007709,53.8669 69.687031,53.397956 69.48034,52.914857 69.247452,52.551253 69.034082,52.155119 68.813779,51.785432 68.611372,51.357219 68.29107,50.933 68.109557,50.507026 67.863264,50.102432 67.610456,49.66177 67.378706,49.243121 c -0.253855,-0.421042 -0.476454,-0.877823 -0.749713,-1.303775 -0.14824,-0.34397 -0.744698,-0.945039 0.05803,-0.90183 0.688631,-0.08123 1.446536,-0.73551 2.107506,-0.353331 0.456273,0.305195 0.767796,0.685737 1.191792,0.974318 0.266404,0.237808 0.626712,0.594053 1.021746,0.291026 0.547753,-0.0112 1.420552,-0.537503 1.550811,0.287988 0.140197,0.268129 0.571813,0.638783 0.179938,0.883982 -0.268049,0.424703 -0.696426,0.713111 -1.020391,1.10716 -0.068,0.459975 0.125509,0.903218 0.155521,1.359209 0.228225,0.641393 0.369655,1.276215 -0.358584,1.616234 -0.426714,0.338553 -0.774164,0.901348 -1.258469,1.114651 z"
         id="path19" /><path
         style="fill:#2e7891;stroke:none;stroke-width:0.0971274;stroke-linecap:round;stroke-miterlimit:4.1215;paint-order:fill markers stroke;fill-opacity:1"
         d="m 73.054455,48.510439 c -0.253937,-0.397966 -0.722732,-1.023185 0.05421,-1.177137 0.400491,-0.270735 0.840598,-0.476499 1.274731,-0.744259 0.417277,-0.235503 0.857087,-0.507163 1.318208,-0.748141 0.332094,-0.270865 0.750918,-0.405531 1.093989,-0.666349 0.431137,-0.24864 0.860587,-0.462024 1.282935,-0.759266 0.423824,-0.202295 0.802412,-0.445301 1.214353,-0.690884 0.225506,-0.14885 0.791194,-0.562453 0.657434,0.0019 0,0.311459 0,0.622918 0,0.934377 -0.429399,0.0355 -0.739162,0.400594 -1.113476,0.55675 -0.402069,0.224797 -0.816292,0.503969 -1.222285,0.698587 -0.486525,0.295014 -0.94537,0.612167 -1.445236,0.849383 -0.362865,0.246792 -0.728813,0.472614 -1.127509,0.651934 -0.458588,0.331729 -0.959653,0.569522 -1.41517,0.862228 -0.120139,0.02111 -0.546127,0.405102 -0.572187,0.230896 z"
         id="path20" /><text
         xml:space="preserve"
         transform="matrix(0.18184941,-0.10497564,0.1049908,0.18182314,44.32002,-8.7172341)"
         id="text20"
         style="font-style:normal;font-variant:normal;font-weight:bold;font-stretch:normal;font-size:24.5081px;line-height:1.1;font-family:'MesloLGS NF';-inkscape-font-specification:'MesloLGS NF Bold';text-align:justify;text-decoration:none;text-decoration-line:none;text-decoration-color:#000000;writing-mode:lr-tb;direction:ltr;white-space:pre;shape-inside:url(#rect20);fill:#003f5f;stroke:none;stroke-width:2.26772;stroke-linecap:round;stroke-miterlimit:4.1215;paint-order:fill markers stroke"><tspan
           x="-94.556641"
           y="203.18957"
           id="tspan1">tidypq</tspan></text></g></g></svg>
